<?xml version="1.0" encoding="utf-8"?>
<!-- Generator: Adobe Illustrator 13.0.2, SVG Export Plug-In . SVG Version: 6.00 Build 14948)  -->
<!DOCTYPE svg PUBLIC "-//W3C//DTD SVG 1.1//EN" "http://www.w3.org/Graphics/SVG/1.1/DTD/svg11.dtd">
<svg version="1.1" id="Layer_1" xmlns="http://www.w3.org/2000/svg" xmlns:xlink="http://www.w3.org/1999/xlink" x="0px" y="0px"
	 width="734.252px" height="137.506px" xml:space="preserve">
<g>
	<path fill-rule="evenodd" clip-rule="evenodd" fill="#B40B51" d="M714.982,70.838c10.645,0,19.27,8.625,19.27,19.27
		s-8.625,19.277-19.27,19.277c-10.652,0-19.277-8.633-19.277-19.277S704.33,70.838,714.982,70.838L714.982,70.838z"/>
	<path fill="#423A3A" d="M50.754,25.672c0-4.865-6.938-8.109-13.869-8.109c-8.85,0-15.344,4.568-15.344,11.207
		c0,17.854,49.277,14.312,49.277,48.689c0,16.668-12.836,30.836-34.82,30.836C12.836,108.295,0,92.061,0,92.061l10.916-13.57
		c0,0,10.77,12.395,25.381,12.395c7.963,0,15.047-4.277,15.047-12.395c0-17.852-49.279-16.377-49.279-48.979
		C2.064,12.545,16.82,0,37.031,0c12.246,0,31.133,5.76,31.133,20.66v9.732h-17.41V25.672L50.754,25.672z M146.504,47.213
		c-2.219,0-3.396,0.443-4.283,2.654l-26.996,68.014c-5.309,13.574-15.934,19.625-27.148,19.625c-11.803,0-19.031-7.672-19.031-7.672
		l7.229-13.277c0,0,4.574,5.164,10.77,5.164c5.164,0,9.738-3.102,12.393-9.594l2.51-5.754L76.863,49.867
		c-0.881-2.211-1.914-2.654-3.979-2.654h-2.219V31.279h12.398c5.311,0,7.965,1.92,9.885,7.082l14.748,37.621
		c1.477,3.84,2.662,10.035,2.662,10.035h0.291c0,0,1.178-6.195,2.508-10.035l12.836-37.621c1.768-5.162,4.867-7.082,10.029-7.082
		h12.691v15.934H146.504L146.504,47.213z M261.729,106.521c-7.084,0-10.035-2.949-10.035-10.031V61.67
		c0-8.553-1.623-15.047-10.328-15.047c-9.293,0-15.934,7.818-18,17.266c-0.887,2.945-1.178,6.043-1.178,9.586v33.047h-18.74V61.67
		c0-8.115-1.178-15.047-10.176-15.047c-9.445,0-15.787,7.818-18.15,17.41c-0.734,2.953-1.178,6.051-1.178,9.441v33.047h-18.59
		V50.457c0-2.211-1.178-3.244-3.242-3.244h-5.906V31.279h17.266c6.639,0,9.883,3.098,9.883,8.414v2.211
		c0,1.621-0.146,3.244-0.146,3.244h0.291c3.543-7.375,12.545-15.637,24.35-15.637c11.359,0,18.732,5.309,21.977,15.49h0.299
		c3.984-8.115,13.723-15.49,25.672-15.49c15.635,0,24.639,8.85,24.639,28.617v29.357c0,2.066,1.178,3.254,3.244,3.254h5.752v15.781
		H261.729L261.729,106.521z M327.232,108.295c-14.902,0-21.541-9.883-21.541-9.883h-0.293c0,0,0.293,2.652,0.293,6.484v31.133
		h-18.59V50.457c0-2.211-1.178-3.244-3.244-3.244h-5.904V31.279h16.676c6.932,0,9.439,3.098,9.439,7.229c0,1.773,0,2.953,0,2.953
		h0.299c0,0,6.342-11.949,23.896-11.949c20.363,0,33.49,16.08,33.49,39.389C361.754,92.803,347.006,108.295,327.232,108.295
		L327.232,108.295z M324.133,45.592c-9.736,0-18.885,7.082-18.885,23.75c0,11.66,6.195,23.164,18.588,23.164
		c10.334,0,19.031-8.406,19.031-23.309C342.867,54.885,335.201,45.592,324.133,45.592L324.133,45.592z M431.686,106.521
		c-6.93,0-9.883-2.949-9.883-10.031V61.969c0-9.148-2.508-15.346-11.949-15.346c-9.891,0-17.562,6.494-20.363,15.637
		c-0.887,2.953-1.176,6.195-1.176,9.738v34.523h-18.742v-85.57c0-2.211-1.18-3.242-3.244-3.242h-5.898V1.775h17.846
		c6.938,0,10.039,3.098,10.039,9.883v26.406c0,3.693-0.301,6.348-0.301,6.348h0.301c3.539-7.229,12.836-14.9,25.816-14.9
		c16.82,0,26.262,8.705,26.262,28.617v29.357c0,2.066,1.176,3.254,3.242,3.254h5.906v15.781H431.686L431.686,106.521z
		 M490.846,108.295c-22.863,0-41.16-16.234-41.16-39.395c0-23.012,18.297-39.389,41.16-39.389c23.02,0,41.309,16.377,41.309,39.389
		C532.154,92.061,513.865,108.295,490.846,108.295L490.846,108.295z M490.846,45.445c-12.094,0-22.273,9.586-22.273,23.455
		c0,14.02,10.18,23.461,22.273,23.461c12.25,0,22.43-9.441,22.43-23.461C513.275,55.031,503.096,45.445,490.846,45.445
		L490.846,45.445z M603.861,106.521c-7.082,0-10.035-2.949-10.035-10.031V61.969c0-9.148-2.355-15.346-11.805-15.346
		c-10.027,0-17.555,6.342-20.211,15.346c-1.031,3.098-1.477,6.486-1.477,10.029v34.523h-18.586V50.457
		c0-2.211-1.18-3.244-3.246-3.244H532.6V31.279h17.266c6.637,0,9.883,3.098,9.883,8.414v2.211c0,1.621-0.301,3.244-0.301,3.244
		h0.301c3.242-6.342,11.359-15.637,26.551-15.637c16.676,0,26.27,8.705,26.27,28.617v29.357c0,2.066,1.176,3.254,3.242,3.254h5.898
		v15.781H603.861L603.861,106.521z M693.115,47.213c-2.211,0-3.387,0.443-4.273,2.654l-27.004,68.014
		c-5.309,13.574-15.934,19.625-27.141,19.625c-11.805,0-19.031-7.672-19.031-7.672l7.227-13.277c0,0,4.574,5.164,10.77,5.164
		c5.164,0,9.734-3.102,12.395-9.594l2.508-5.754l-25.082-56.506c-0.887-2.211-1.918-2.654-3.984-2.654h-2.211V31.279h12.391
		c5.309,0,7.965,1.92,9.883,7.082l14.758,37.621c1.477,3.84,2.652,10.035,2.652,10.035h0.293c0,0,1.184-6.195,2.508-10.035
		l12.836-37.621c1.773-5.162,4.875-7.082,10.035-7.082h12.684v15.934H693.115L693.115,47.213z"/>
</g>
</svg>
